<?xml version="1.0" standalone="no"?>
<!DOCTYPE svg PUBLIC "-//W3C//DTD SVG 20010904//EN"
 "http://www.w3.org/TR/2001/REC-SVG-20010904/DTD/svg10.dtd">
<svg version="1.0" xmlns="http://www.w3.org/2000/svg"
 width="1490.000000pt" height="1490.000000pt" viewBox="0 0 1490.000000 1490.000000"
 preserveAspectRatio="xMidYMid meet">
<metadata>
Created by potrace 1.14, written by Peter Selinger 2001-2017
</metadata>
<g transform="translate(0.000000,1490.000000) scale(0.100000,-0.100000)"
fill="#000000" stroke="none">
<path d="M9560 13745 c-107 -6 -258 -9 -335 -6 -289 12 -1680 2 -1885 -14
-238 -18 -734 -52 -890 -60 -63 -4 -126 -9 -140 -12 -14 -3 -513 -9 -1110 -13
-897 -7 -1102 -11 -1185 -24 -55 -8 -140 -15 -190 -16 -67 0 -108 -6 -160 -24
-38 -13 -122 -35 -185 -49 -278 -62 -600 -129 -780 -162 -246 -44 -294 -57
-344 -93 -96 -69 -138 -165 -156 -355 -13 -136 4 -2496 19 -2627 26 -226 33
-454 21 -630 -15 -212 -9 -254 59 -385 130 -249 226 -368 541 -674 144 -140
259 -255 258 -256 -2 -2 -145 -6 -318 -9 -312 -6 -542 -14 -590 -21 -55 -7
-263 -26 -395 -35 -90 -6 -176 -18 -240 -35 -55 -14 -136 -33 -180 -41 -160
-30 -198 -51 -230 -126 -21 -51 -19 -110 10 -364 23 -194 25 -244 20 -434 -3
-118 -8 -229 -11 -246 l-4 -30 -72 24 c-144 48 -304 37 -455 -33 -249 -115
-462 -380 -540 -670 -24 -90 -27 -118 -27 -275 0 -146 3 -193 22 -280 50 -228
139 -436 276 -645 271 -411 626 -706 1091 -906 280 -120 513 -178 875 -219
196 -22 290 -45 394 -96 107 -52 193 -122 307 -250 277 -311 498 -441 715
-421 l66 6 -9 -42 c-17 -89 -8 -168 27 -241 40 -80 83 -120 198 -183 46 -25
132 -80 190 -122 59 -42 150 -103 202 -135 116 -72 242 -165 421 -310 75 -61
226 -177 335 -259 110 -81 244 -188 299 -238 155 -140 267 -210 667 -410 97
-48 218 -115 268 -149 150 -98 199 -98 418 4 166 77 353 139 917 301 237 68
525 156 640 195 116 39 350 113 520 165 655 199 873 267 1270 393 226 72 518
161 650 197 320 88 370 103 875 270 454 150 548 177 845 246 242 55 463 123
685 209 569 221 759 287 985 339 245 56 418 115 463 155 32 30 36 40 39 92 5
69 -45 282 -75 324 -10 14 -79 57 -153 95 -74 39 -215 115 -314 169 -99 54
-268 146 -375 204 -107 58 -281 154 -386 213 -105 60 -247 135 -315 166 -144
66 -540 270 -749 386 -93 52 -159 82 -185 85 -51 5 -99 -17 -119 -56 -13 -25
-32 -34 -148 -70 -220 -68 -215 -67 -254 -53 -45 16 -87 6 -128 -30 -31 -27
-138 -59 -197 -59 -18 0 -19 1 -3 25 11 17 15 38 12 67 -3 27 1 54 10 73 10
20 18 75 23 160 4 72 14 180 22 240 25 180 29 466 13 850 -25 569 -62 817
-144 968 -19 36 -44 60 -106 102 -105 70 -166 97 -306 136 -182 50 -708 223
-780 256 -8 4 68 10 170 13 208 7 248 18 277 74 8 17 29 46 47 64 l31 33 6
297 c7 312 19 521 46 812 19 205 21 811 4 1160 -30 596 -43 815 -66 1035 -49
492 -50 506 -50 1010 0 270 4 618 9 775 9 281 9 286 -13 335 -48 108 -104 155
-187 155 -28 0 -71 7 -94 15 -52 18 -374 18 -680 0z m-600 -241 c313 -10 414
-10 610 1 244 15 602 11 673 -6 l59 -14 -6 -210 c-3 -115 -9 -421 -12 -680 -6
-508 1 -665 52 -1153 13 -129 31 -363 39 -520 8 -158 20 -379 26 -492 16 -295
16 -958 1 -1105 -25 -236 -42 -564 -42 -807 0 -136 -4 -258 -10 -272 l-9 -26
-143 1 c-82 1 -190 -5 -253 -14 -60 -9 -211 -30 -335 -47 -124 -17 -376 -53
-560 -80 -556 -81 -706 -101 -965 -125 -105 -10 -294 -24 -385 -30 -52 -3
-115 -8 -140 -10 -97 -9 -195 -16 -440 -30 -140 -8 -279 -17 -307 -20 -29 -3
-77 -7 -105 -10 -150 -13 -653 -67 -718 -76 -41 -6 -145 -23 -230 -39 -85 -16
-209 -36 -275 -45 -66 -9 -133 -17 -150 -20 -38 -5 -312 -34 -385 -40 -166
-15 -282 -27 -335 -35 -78 -11 -127 -17 -257 -30 -92 -9 -112 -8 -137 5 -16 8
-33 19 -36 25 -9 14 -101 60 -121 60 -28 0 -143 89 -150 116 -3 13 -4 52 0 87
3 34 8 109 11 167 4 58 10 166 16 240 30 444 43 1866 20 2245 -22 362 -60
1021 -65 1155 -15 329 -8 1669 8 1687 1 1 53 10 116 19 125 17 310 21 1545 28
494 3 753 8 910 20 337 24 354 25 595 41 124 8 241 17 260 19 84 10 299 16
785 22 286 3 521 7 522 8 1 1 22 1 45 0 24 -1 149 -5 278 -10z m-5314 -1027
c1 -663 4 -897 17 -1102 9 -143 19 -298 22 -345 3 -47 12 -200 20 -340 25
-406 32 -665 28 -960 -2 -151 -6 -288 -8 -305 -2 -16 -7 -214 -10 -440 -5
-381 -18 -721 -34 -875 l-6 -64 -96 120 c-145 181 -279 323 -558 594 -310 300
-411 426 -512 632 l-37 78 5 282 c4 229 1 333 -15 548 -19 243 -21 364 -24
1460 -3 1174 -3 1196 17 1248 19 51 23 55 75 74 30 10 138 34 240 52 102 19
248 48 324 65 76 18 216 48 310 66 94 19 185 39 201 44 17 5 32 10 35 10 3 1
5 -378 6 -842z m-212 -4523 c61 -76 145 -184 186 -239 57 -76 95 -115 160
-163 47 -35 113 -85 147 -112 43 -33 76 -50 105 -55 24 -4 50 -13 58 -20 8 -7
37 -20 63 -30 57 -22 190 -17 432 14 83 11 185 23 227 27 77 7 77 6 102 -23
14 -17 44 -35 68 -42 165 -49 485 -198 614 -286 75 -51 137 -70 207 -62 28 3
133 25 232 50 99 25 268 62 375 83 181 34 210 37 410 40 176 2 254 9 430 34
136 19 292 34 424 40 115 6 266 19 335 30 153 25 431 85 512 110 95 31 121 33
189 15 139 -36 287 -10 349 60 37 42 46 88 31 146 -13 48 -79 155 -129 208
-18 18 -31 34 -29 35 3 3 345 53 588 87 79 11 146 17 147 12 10 -27 43 -70 64
-80 42 -20 187 -73 419 -153 124 -43 263 -91 310 -108 47 -17 148 -47 225 -67
77 -20 142 -38 144 -41 2 -2 -29 -4 -70 -4 -120 0 -320 -38 -719 -135 -420
-102 -748 -162 -1020 -185 -209 -18 -378 -34 -475 -45 -22 -2 -71 -7 -110 -10
-221 -20 -1316 -193 -1935 -305 -189 -35 -262 -45 -460 -65 -25 -3 -101 -9
-170 -15 -69 -6 -163 -14 -210 -20 -229 -25 -283 -30 -380 -35 -119 -7 -305
-26 -525 -54 -82 -11 -190 -23 -240 -27 -49 -4 -101 -11 -113 -15 -27 -10
-106 30 -327 165 -71 44 -249 141 -395 216 -613 316 -792 411 -915 485 -115
69 -764 395 -785 395 -5 0 -29 18 -54 39 -54 47 -76 55 -122 47 -54 -11 -86
-48 -92 -105 -6 -69 18 -115 84 -157 29 -19 56 -34 59 -34 12 0 629 -306 700
-347 39 -22 111 -64 160 -93 50 -29 214 -117 365 -195 612 -316 760 -394 862
-457 58 -36 154 -92 212 -124 73 -40 108 -64 111 -78 10 -50 12 -286 3 -341
-5 -33 -11 -170 -13 -305 -2 -149 -12 -341 -25 -490 -36 -384 -35 -550 5 -879
l7 -54 -49 28 c-173 101 -1213 877 -1293 965 -16 18 -149 117 -235 175 -139
94 -221 152 -282 196 -71 53 -172 122 -518 354 -208 139 -333 216 -408 250
-76 35 -109 55 -113 70 -3 11 0 78 6 149 5 71 10 175 10 232 0 61 8 143 19
201 26 132 30 181 35 443 3 193 0 256 -21 439 -26 231 -26 231 28 231 14 0 68
11 120 25 142 38 184 45 309 51 63 3 176 12 250 21 172 20 542 31 924 28 l299
-2 111 -139z m5266 -264 c47 -43 82 -81 79 -84 -3 -3 -21 -1 -40 4 -64 19
-161 12 -270 -20 -127 -37 -463 -106 -579 -119 -47 -5 -155 -12 -240 -16 -166
-6 -239 -14 -450 -47 -101 -16 -189 -22 -350 -24 -227 -2 -229 -2 -410 -35
-181 -32 -303 -58 -472 -100 -86 -21 -169 -39 -183 -39 -14 0 -52 17 -83 38
-74 50 -198 117 -281 152 -76 33 -82 30 109 55 69 9 208 31 310 50 154 28 653
87 925 110 39 3 95 8 125 10 80 7 190 14 315 20 130 7 243 14 305 20 25 3 86
7 135 10 280 18 778 65 890 84 28 5 57 9 65 9 8 1 53 -34 100 -78z m2404 -550
c59 -353 80 -1203 36 -1496 -11 -72 -20 -184 -21 -248 0 -64 -2 -116 -4 -116
-2 0 -56 -9 -122 -21 -92 -16 -454 -76 -748 -125 -16 -2 -55 -9 -85 -14 -30
-5 -71 -12 -90 -15 -35 -6 -132 -22 -180 -31 -14 -2 -54 -9 -90 -14 -36 -6
-76 -13 -90 -15 -129 -23 -393 -65 -396 -63 -1 2 -6 377 -9 833 -4 457 -10
891 -15 965 -5 74 -7 136 -6 138 2 1 43 9 92 18 125 21 463 89 564 113 47 11
171 41 275 66 257 63 437 93 618 105 84 5 172 15 197 23 31 9 47 10 51 3 4 -6
14 -54 23 -106z m-2060 -302 c3 -29 10 -458 16 -952 8 -656 8 -906 0 -926 -11
-26 -15 -27 -326 -79 -173 -29 -325 -54 -337 -56 -32 -6 -199 -34 -297 -50
-120 -20 -870 -145 -900 -150 -14 -3 -54 -10 -90 -15 -36 -6 -76 -13 -90 -15
-14 -3 -133 -23 -265 -45 -132 -22 -251 -42 -265 -45 -19 -3 -367 -61 -605
-101 -16 -2 -55 -9 -85 -14 -30 -5 -68 -12 -85 -14 -325 -54 -1171 -196 -1196
-201 l-26 -6 -21 213 c-36 362 -36 352 9 838 13 144 32 675 33 917 l0 181 81
7 c44 4 123 13 176 21 143 20 348 41 579 59 113 8 221 17 240 20 52 8 209 23
458 45 201 18 389 44 511 71 25 5 216 39 425 74 210 35 448 76 530 90 261 45
904 133 1091 150 99 9 212 20 250 25 39 4 95 8 127 9 l56 1 6 -52z m-7997 -46
c72 -37 74 -46 66 -329 -5 -190 -3 -258 7 -287 21 -65 83 -116 222 -183 135
-65 419 -251 968 -633 298 -208 369 -261 621 -466 273 -221 996 -752 1134
-831 145 -84 280 -143 324 -143 23 0 837 133 1808 295 971 163 1767 294 1770
292 5 -6 -198 -54 -301 -72 -39 -7 -177 -37 -306 -68 -758 -181 -1094 -259
-1245 -291 -308 -66 -486 -106 -855 -197 -200 -49 -405 -96 -455 -105 -49 -8
-157 -25 -240 -38 -131 -21 -326 -54 -503 -86 -86 -15 -154 -51 -177 -93 -11
-20 -24 -37 -30 -37 -6 0 -32 -12 -59 -26 -43 -23 -58 -26 -112 -21 -131 10
-215 69 -474 334 -302 308 -435 374 -865 429 -325 41 -511 85 -738 175 -464
185 -825 485 -1082 899 -162 263 -232 503 -223 773 4 127 8 152 37 237 42 124
106 226 206 325 82 82 181 145 261 164 66 17 193 7 241 -17z m11228 -1751 c68
-39 69 -40 40 -46 -17 -4 -61 -15 -100 -25 -38 -10 -101 -23 -138 -29 -67 -12
-70 -11 -104 15 -19 14 -31 29 -28 32 7 7 234 89 250 91 6 0 41 -17 80 -38z
m-620 -144 c24 -18 16 -22 -90 -41 -148 -27 -322 -65 -464 -102 l-134 -34 -24
21 c-12 13 -23 25 -23 29 0 3 39 12 88 18 116 17 337 58 492 92 69 15 128 28
131 29 3 0 13 -5 24 -12z m1166 -142 c84 -41 146 -77 138 -80 -8 -2 -133 -34
-279 -69 l-264 -64 -56 48 c-30 27 -72 66 -94 88 l-38 40 53 15 c30 9 113 27
184 42 103 21 183 43 202 54 0 1 70 -33 154 -74z m-2192 -64 l45 -38 -90 -16
c-49 -9 -160 -33 -246 -53 l-157 -37 -67 59 c-55 48 -64 60 -48 63 49 10 434
58 474 59 39 1 51 -4 89 -37z m1401 -124 c56 -54 101 -100 99 -102 -9 -8 -646
-185 -669 -185 -13 0 -270 228 -270 239 0 15 683 153 726 148 7 -1 58 -46 114
-100z m-2331 19 c7 -8 32 -21 56 -29 23 -8 66 -32 94 -53 l51 -38 -148 -43
c-144 -43 -381 -107 -514 -140 l-67 -16 -53 47 c-29 26 -83 70 -121 99 -37 28
-64 53 -60 54 5 1 85 16 178 33 94 17 247 46 340 64 192 39 228 42 244 22z
m3721 -143 c55 -32 100 -61 100 -64 0 -3 -46 -14 -102 -23 -152 -27 -274 -59
-461 -123 l-167 -57 -80 79 c-44 44 -76 82 -72 86 4 3 61 18 127 34 66 15 188
45 272 66 83 22 167 39 185 40 18 0 42 4 53 9 34 15 42 12 145 -47z m-2448
-62 c40 -37 101 -92 135 -122 l61 -54 -41 -13 c-23 -7 -134 -35 -247 -62
l-204 -49 -101 98 c-55 54 -117 114 -138 133 l-38 34 53 13 c65 15 418 88 435
90 6 0 45 -30 85 -68z m-2364 -25 c125 -52 282 -151 264 -167 -15 -13 -644
-189 -677 -189 -11 0 -66 39 -121 88 -55 48 -117 101 -138 118 l-39 31 254 61
c140 34 281 68 314 76 33 8 60 15 60 15 1 1 38 -14 83 -33z m1657 -219 l138
-132 -184 -62 c-101 -33 -264 -89 -361 -123 l-178 -62 -67 60 c-89 79 -248
240 -242 245 2 2 70 20 150 41 81 21 243 66 360 101 118 35 221 64 229 64 9 1
78 -59 155 -132z m2175 40 c51 -48 91 -89 89 -91 -9 -9 -193 -70 -409 -136
l-231 -71 -47 43 c-127 117 -161 151 -157 158 2 4 35 15 72 24 37 9 183 50
323 90 140 41 258 73 261 72 4 0 48 -41 99 -89z m1597 -71 c114 -62 228 -125
253 -139 l44 -26 -29 -11 c-113 -43 -297 -96 -540 -155 -104 -26 -246 -62
-314 -81 -68 -19 -124 -33 -125 -32 -27 48 -109 136 -204 218 l-121 105 42 18
c65 29 262 83 367 101 175 32 275 57 340 86 36 16 68 30 72 30 4 0 101 -51
215 -114z m-6398 20 c61 -41 251 -198 251 -207 0 -9 -374 -113 -627 -175 -98
-23 -115 -25 -131 -13 -11 8 -66 52 -123 98 -57 46 -128 99 -157 119 -29 19
-51 37 -49 38 2 2 50 15 108 28 223 51 555 129 584 136 61 16 92 11 144 -24z
m3835 -198 c44 -40 93 -85 110 -100 16 -15 28 -29 25 -32 -5 -5 -159 -50 -343
-100 l-129 -35 -31 26 c-62 51 -206 186 -206 192 0 3 55 19 123 35 67 16 169
41 227 56 58 15 114 28 124 29 11 1 54 -31 100 -71z m-2224 -99 c156 -158 157
-161 131 -170 -23 -9 -509 -161 -571 -178 -22 -6 -47 12 -207 153 -101 88
-181 162 -178 164 5 5 644 191 659 192 5 0 80 -72 166 -161z m-2765 47 c14
-13 38 -27 53 -31 62 -15 303 -179 286 -194 -5 -5 -47 -16 -94 -26 -47 -9
-146 -33 -220 -52 -192 -50 -404 -102 -484 -119 l-69 -14 -141 92 c-78 51
-169 109 -204 128 -34 19 -62 37 -62 40 0 5 353 85 660 150 80 16 159 34 175
39 50 15 73 12 100 -13z m6316 -43 c35 -32 98 -86 139 -119 93 -77 135 -120
122 -128 -9 -5 -142 -40 -272 -70 -36 -8 -145 -31 -243 -51 -163 -33 -180 -35
-200 -21 -40 27 -252 234 -247 240 3 3 78 27 165 55 88 27 225 72 305 99 80
28 150 51 155 51 6 1 40 -25 76 -56z m-2122 -93 c9 -8 49 -44 89 -79 39 -35
72 -67 72 -71 0 -4 -33 -16 -72 -25 -91 -22 -463 -124 -582 -160 -48 -14 -94
-25 -101 -23 -17 4 -208 179 -202 185 7 6 428 150 582 198 l140 44 29 -27 c16
-15 36 -34 45 -42z m-2396 -151 c195 -169 230 -200 225 -204 -5 -5 -346 -93
-488 -126 -74 -17 -170 -40 -214 -50 -43 -10 -86 -19 -95 -19 -9 0 -90 73
-179 163 l-163 164 68 18 c132 34 489 133 593 164 36 10 73 20 83 20 10 1 86
-58 170 -130z m-3069 2 c12 -11 59 -36 106 -56 47 -21 131 -65 188 -98 82 -48
100 -63 85 -69 -10 -4 -79 -17 -153 -28 -246 -40 -598 -114 -614 -130 -15 -15
-30 -12 -52 8 -10 9 -41 35 -69 57 -27 22 -52 42 -55 45 -11 13 -148 99 -190
120 l-45 23 47 13 c26 6 100 19 165 28 233 33 314 48 425 75 139 35 137 35
162 12z m6741 -118 c75 -69 134 -127 132 -129 -2 -2 -104 -37 -227 -79 -182
-61 -226 -73 -239 -63 -29 22 -261 252 -261 259 0 3 37 16 83 29 97 27 266 76
322 95 22 7 43 13 48 14 4 1 68 -56 142 -126z m-2236 -93 c52 -49 92 -92 89
-96 -4 -3 -140 -55 -304 -115 l-298 -110 -109 110 -110 109 104 32 c57 17 192
60 299 95 107 34 204 63 215 64 12 0 58 -36 114 -89z m-2467 -97 c152 -151
167 -168 146 -174 -13 -4 -57 -16 -98 -26 -41 -11 -191 -53 -332 -94 l-257
-73 -113 76 c-123 83 -258 176 -326 226 l-44 31 29 7 c15 4 87 22 158 40 216
57 616 150 654 153 7 0 90 -74 183 -166z m-3055 42 c48 -35 128 -88 176 -116
123 -71 352 -260 592 -489 39 -36 97 -86 130 -111 33 -25 113 -85 178 -135 65
-49 146 -108 180 -132 61 -43 228 -181 317 -263 79 -72 527 -438 607 -495 138
-99 186 -114 286 -89 284 70 427 113 1129 336 80 25 472 122 663 163 160 35
373 85 643 152 78 19 226 61 330 94 266 83 292 90 292 79 0 -5 -2 -9 -5 -9 -3
0 -132 -39 -287 -86 -156 -47 -386 -117 -512 -155 -126 -38 -365 -114 -530
-168 -166 -55 -476 -150 -691 -211 -487 -139 -843 -256 -975 -320 -56 -28
-108 -50 -115 -50 -8 0 -52 24 -97 54 -46 29 -200 112 -344 184 -279 141 -430
235 -534 333 -89 84 -178 154 -376 299 -93 68 -230 174 -304 235 -148 123
-266 209 -393 287 -45 28 -133 87 -196 132 -63 44 -155 104 -205 132 -62 35
-97 61 -110 84 -19 32 -19 34 2 129 12 53 27 120 33 149 6 28 14 52 19 52 4 0
48 -29 97 -65z m6964 -22 c164 -153 202 -194 193 -203 -18 -17 -717 -244 -734
-238 -22 8 -328 319 -317 323 25 8 155 45 230 64 42 12 112 30 155 42 42 11
137 36 211 55 74 18 136 36 139 39 14 14 37 -2 123 -82z m1882 12 c-110 -48
-351 -115 -718 -200 -92 -21 -372 -107 -660 -201 -512 -167 -772 -247 -788
-241 -5 1 44 20 109 41 66 20 198 65 294 98 392 134 1070 358 1145 377 44 11
170 38 280 60 110 22 232 49 270 60 84 23 112 25 68 6z m-4204 -235 c104 -104
109 -111 88 -120 -41 -17 -699 -230 -711 -230 -17 0 -292 247 -284 255 2 2 46
13 98 25 208 48 411 101 535 138 72 22 137 40 147 41 9 0 66 -49 127 -109z
m-2734 -44 c94 -67 196 -139 228 -161 52 -35 56 -40 37 -47 -31 -12 -248 -63
-415 -98 -182 -38 -353 -77 -417 -95 l-47 -14 -55 42 c-31 23 -78 58 -106 77
-130 90 -318 260 -298 271 19 10 206 47 403 79 169 28 344 61 420 78 25 6 47
5 60 -1 11 -6 97 -65 190 -131z m3999 -20 c156 -142 248 -239 234 -247 -12 -6
-92 -31 -460 -139 l-126 -37 -98 67 c-116 82 -249 199 -237 211 5 5 42 21 83
35 41 15 170 62 285 105 116 43 216 78 224 78 7 1 50 -32 95 -73z m-2409 -154
c28 -26 92 -85 143 -131 51 -46 90 -86 88 -88 -14 -15 -625 -213 -642 -209
-26 7 -326 288 -316 298 12 12 619 176 657 177 11 1 43 -21 70 -47z m1561
-187 c54 -53 118 -110 141 -128 23 -18 43 -35 43 -39 0 -14 -303 -102 -560
-163 -155 -37 -155 -37 -190 -18 -35 18 -234 212 -226 220 8 8 651 220 672
222 14 1 54 -31 120 -94z m1589 -15 c-11 -5 -27 -9 -35 -9 -9 0 -8 4 5 9 11 5
27 9 35 9 9 0 8 -4 -5 -9z m-4090 -89 c100 -80 261 -229 255 -234 -9 -8 -383
-125 -510 -160 -169 -47 -261 -67 -323 -74 l-53 -5 -78 66 c-43 36 -115 99
-160 140 -44 41 -94 85 -111 99 -16 14 -28 27 -25 30 3 2 102 25 220 51 239
51 363 80 555 129 72 18 135 31 140 28 6 -3 46 -34 90 -70z m1565 -240 c52
-52 91 -95 85 -97 -5 -1 -53 -12 -105 -24 -179 -41 -385 -92 -473 -117 l-88
-25 -67 41 c-93 56 -172 128 -151 136 9 3 157 53 330 109 368 122 320 124 469
-23z m-1012 -244 c37 -34 80 -72 96 -85 16 -12 27 -24 25 -26 -13 -11 -447
-143 -614 -186 -66 -17 -141 -38 -167 -47 l-48 -15 -53 36 c-86 56 -158 116
-152 126 3 4 27 13 53 19 119 27 317 87 692 211 47 16 89 29 93 29 4 1 38 -27
75 -62z"/>
<path d="M9608 13055 c-9 -9 -619 -26 -1293 -35 -357 -5 -672 -12 -700 -15
-128 -14 -473 -37 -690 -45 -132 -6 -328 -19 -435 -30 -291 -31 -684 -37
-1010 -16 -299 20 -354 16 -550 -34 -144 -36 -225 -65 -265 -95 -45 -33 -83
-110 -96 -196 -15 -93 -5 -526 16 -724 8 -77 23 -273 35 -435 11 -162 24 -365
30 -450 21 -304 34 -907 35 -1705 1 -706 3 -820 18 -887 18 -89 48 -145 108
-205 61 -62 109 -82 369 -154 95 -27 328 -37 462 -20 51 6 298 23 548 36 454
25 600 40 956 99 82 13 205 30 274 36 69 6 181 20 250 30 69 11 233 33 365 50
220 28 467 72 780 136 68 14 185 29 270 34 82 5 193 16 245 24 52 8 174 22
270 31 300 27 341 37 398 89 43 38 64 94 73 195 4 53 16 146 25 206 26 175 22
330 -14 535 -42 237 -59 435 -102 1140 -27 451 -19 1156 15 1385 9 57 18 215
21 365 13 546 -39 659 -302 660 -55 0 -103 -2 -106 -5z m-1977 -405 c28 -15
46 -57 68 -156 20 -92 62 -216 124 -364 46 -110 86 -247 97 -336 13 -98 -11
-247 -85 -544 -19 -74 -43 -191 -54 -260 -10 -69 -35 -213 -55 -320 -53 -287
-53 -279 7 -155 57 117 157 286 235 394 61 87 200 231 282 292 126 95 307 149
500 149 176 0 275 -39 400 -157 152 -142 196 -293 155 -527 -8 -47 -27 -116
-42 -152 -47 -117 -236 -356 -290 -367 -38 -7 -71 8 -85 38 -10 22 -6 42 27
138 35 102 39 122 40 217 0 140 -13 178 -83 250 -70 71 -108 84 -242 78 -88
-3 -103 -7 -184 -46 -49 -23 -107 -55 -130 -70 -22 -16 -59 -41 -80 -55 -21
-15 -48 -27 -60 -27 -38 0 -222 -263 -291 -415 -47 -104 -89 -230 -83 -246 4
-10 34 -19 89 -28 90 -14 133 -31 143 -56 12 -31 6 -62 -15 -81 -17 -16 -35
-18 -116 -16 l-95 2 6 -35 c27 -144 212 -431 334 -520 102 -74 194 -45 228 71
14 50 14 55 -6 91 -11 21 -36 57 -55 81 -19 24 -35 54 -35 68 0 30 33 64 63
64 40 0 130 -52 184 -106 43 -42 55 -64 74 -124 75 -248 -76 -468 -307 -447
-124 12 -301 112 -434 246 -59 60 -86 97 -123 171 l-48 95 4 -110 c3 -119 21
-177 78 -260 30 -43 117 -136 162 -172 45 -38 32 -96 -26 -116 -10 -4 -45 4
-80 19 -96 38 -104 33 -131 -87 -8 -35 -70 -89 -102 -89 -30 0 -74 41 -74 70
0 25 -33 92 -66 137 l-25 32 -65 -44 c-48 -33 -75 -45 -101 -45 -69 0 -97 60
-48 103 57 50 162 162 192 204 65 92 93 221 93 431 l-1 157 -38 -97 c-84 -212
-279 -446 -435 -524 -72 -35 -87 -39 -155 -38 -93 0 -144 23 -190 86 -53 72
-74 141 -75 248 -1 86 2 101 29 155 17 32 57 87 90 122 50 52 66 63 93 63 36
0 72 -29 72 -59 0 -11 -16 -47 -35 -80 -31 -52 -35 -67 -35 -129 0 -86 19
-116 80 -126 68 -11 117 9 186 76 98 94 131 149 165 274 41 155 42 154 -28
154 -149 0 -227 34 -216 93 7 38 55 55 161 60 51 3 95 6 97 9 7 7 -35 157 -65
234 -129 324 -314 552 -508 624 -113 42 -244 42 -340 0 -57 -26 -88 -54 -114
-103 -43 -85 -34 -177 34 -349 44 -112 51 -160 25 -185 -33 -33 -70 -21 -157
52 -198 165 -290 346 -292 575 -3 278 149 476 390 510 133 18 354 -31 525
-116 109 -55 296 -222 408 -364 32 -41 72 -91 88 -110 17 -19 50 -71 75 -115
25 -44 46 -77 46 -73 0 49 -83 458 -150 733 -48 197 -57 290 -41 405 16 110
51 204 121 325 109 190 163 321 211 509 25 101 54 126 110 96z"/>
<path d="M7761 11865 c0 -11 4 -27 9 -35 9 -13 10 -13 9 0 0 8 -4 24 -9 35
l-9 20 0 -20z"/>
<path d="M8330 11089 l-35 -30 38 26 c33 24 43 35 34 35 -1 0 -18 -14 -37 -31z"/>
<path d="M10055 6400 c-40 -18 -74 -56 -99 -110 -32 -68 -32 -103 -3 -160 30
-60 82 -90 160 -90 122 0 217 92 217 210 0 63 -19 102 -67 135 -32 21 -48 25
-113 24 -41 0 -84 -4 -95 -9z"/>
<path d="M10115 5909 c-51 -16 -121 -74 -144 -121 -65 -136 26 -312 169 -326
168 -16 321 217 237 362 -43 75 -165 115 -262 85z"/>
<path d="M7920 6412 c-51 -28 -73 -63 -77 -124 -5 -62 17 -106 69 -138 93 -57
221 18 221 130 0 108 -121 183 -213 132z"/>
<path d="M5948 5784 c-15 -8 -32 -23 -38 -34 -8 -14 -21 -20 -48 -20 -20 0
-52 -9 -70 -20 -34 -21 -72 -74 -72 -101 0 -13 -13 -18 -57 -22 -73 -6 -400
-54 -470 -68 -95 -19 -136 -93 -97 -175 24 -51 64 -68 143 -61 76 7 260 32
340 47 97 18 144 13 172 -16 35 -38 72 -54 126 -55 26 0 74 -2 105 -2 49 -2
60 2 85 25 23 22 32 25 47 16 10 -6 36 -8 58 -5 24 3 54 -1 76 -10 61 -25 146
0 174 51 7 12 15 41 18 65 l5 44 100 17 c111 19 239 49 360 85 92 28 132 61
141 117 8 46 -19 104 -59 124 -36 19 -67 16 -217 -23 -113 -30 -230 -56 -300
-67 -34 -6 -37 -4 -49 30 -23 64 -101 92 -164 59 -21 -10 -34 -12 -47 -5 -25
13 -63 13 -93 -1 -19 -9 -31 -7 -55 5 -38 20 -78 20 -114 0z"/>
</g>
</svg>
